TITLE ""
FILE "2Q_t_1153-1169.mp3" MP3
  TRACK 01 AUDIO
    TITLE "2Q_t_1153-1169_01"
    INDEX 01 00:00:00
  TRACK 02 AUDIO
    TITLE "2Q_t_1153-1169_02"
    INDEX 01 00:00:10
  TRACK 03 AUDIO
    TITLE "2Q_t_1153-1169_03"
    INDEX 01 00:01:10
  TRACK 04 AUDIO
    TITLE "2Q_t_1153-1169_04"
    INDEX 01 00:01:57
  TRACK 05 AUDIO
    TITLE "2Q_t_1153-1169_05"
    INDEX 01 00:03:73
  TRACK 06 AUDIO
    TITLE "2Q_t_1153-1169_06"
    INDEX 01 00:04:45
  TRACK 07 AUDIO
    TITLE "2Q_t_1153-1169_07"
    INDEX 01 00:05:51
  TRACK 08 AUDIO
    TITLE "2Q_t_1153-1169_08"
    INDEX 01 00:06:25
  TRACK 09 AUDIO
    TITLE "2Q_t_1153-1169_09"
    INDEX 01 00:08:10
  TRACK 10 AUDIO
    TITLE "2Q_t_1153-1169_10"
    INDEX 01 00:08:55
  TRACK 11 AUDIO
    TITLE "2Q_t_1153-1169_11"
    INDEX 01 00:10:01
  TRACK 12 AUDIO
    TITLE "2Q_t_1153-1169_12"
    INDEX 01 00:10:50
  TRACK 13 AUDIO
    TITLE "2Q_t_1153-1169_13"
    INDEX 01 00:13:11
  TRACK 14 AUDIO
    TITLE "2Q_t_1153-1169_14"
    INDEX 01 00:13:56
  TRACK 15 AUDIO
    TITLE "2Q_t_1153-1169_15"
    INDEX 01 00:14:44
  TRACK 16 AUDIO
    TITLE "2Q_t_1153-1169_16"
    INDEX 01 00:15:27
  TRACK 17 AUDIO
    TITLE "2Q_t_1153-1169_17"
    INDEX 01 00:16:45
  TRACK 18 AUDIO
    TITLE "2Q_t_1153-1169_18"
    INDEX 01 00:17:13
  TRACK 19 AUDIO
    TITLE "2Q_t_1153-1169_19"
    INDEX 01 00:18:28
  TRACK 20 AUDIO
    TITLE "2Q_t_1153-1169_20"
    INDEX 01 00:19:04
  TRACK 21 AUDIO
    TITLE "2Q_t_1153-1169_21"
    INDEX 01 00:21:09
  TRACK 22 AUDIO
    TITLE "2Q_t_1153-1169_22"
    INDEX 01 00:21:54
  TRACK 23 AUDIO
    TITLE "2Q_t_1153-1169_23"
    INDEX 01 00:23:03
  TRACK 24 AUDIO
    TITLE "2Q_t_1153-1169_24"
    INDEX 01 00:23:49
  TRACK 25 AUDIO
    TITLE "2Q_t_1153-1169_25"
    INDEX 01 00:25:47
  TRACK 26 AUDIO
    TITLE "2Q_t_1153-1169_26"
    INDEX 01 00:26:19
  TRACK 27 AUDIO
    TITLE "2Q_t_1153-1169_27"
    INDEX 01 00:27:35
  TRACK 28 AUDIO
    TITLE "2Q_t_1153-1169_28"
    INDEX 01 00:28:09
  TRACK 29 AUDIO
    TITLE "2Q_t_1153-1169_29"
    INDEX 01 00:29:30
  TRACK 30 AUDIO
    TITLE "2Q_t_1153-1169_30"
    INDEX 01 00:30:00
  TRACK 31 AUDIO
    TITLE "2Q_t_1153-1169_31"
    INDEX 01 00:31:21
  TRACK 32 AUDIO
    TITLE "2Q_t_1153-1169_32"
    INDEX 01 00:31:66
  TRACK 33 AUDIO
    TITLE "2Q_t_1153-1169_33"
    INDEX 01 00:33:12
  TRACK 34 AUDIO
    TITLE "2Q_t_1153-1169_34"
    INDEX 01 00:33:63
  TRACK 35 AUDIO
    TITLE "2Q_t_1153-1169_35"
    INDEX 01 00:36:20
  TRACK 36 AUDIO
    TITLE "2Q_t_1153-1169_36"
    INDEX 01 00:36:65
  TRACK 37 AUDIO
    TITLE "2Q_t_1153-1169_37"
    INDEX 01 00:38:09
  TRACK 38 AUDIO
    TITLE "2Q_t_1153-1169_38"
    INDEX 01 00:38:66
  TRACK 39 AUDIO
    TITLE "2Q_t_1153-1169_39"
    INDEX 01 00:40:20
  TRACK 40 AUDIO
    TITLE "2Q_t_1153-1169_40"
    INDEX 01 00:40:67
  TRACK 41 AUDIO
    TITLE "2Q_t_1153-1169_41"
    INDEX 01 00:42:07
  TRACK 42 AUDIO
    TITLE "2Q_t_1153-1169_42"
    INDEX 01 00:42:58
  TRACK 43 AUDIO
    TITLE "2Q_t_1153-1169_43"
    INDEX 01 00:45:07
  TRACK 44 AUDIO
    TITLE "2Q_t_1153-1169_44"
    INDEX 01 00:45:52
  TRACK 45 AUDIO
    TITLE "2Q_t_1153-1169_45"
    INDEX 01 00:46:65
  TRACK 46 AUDIO
    TITLE "2Q_t_1153-1169_46"
    INDEX 01 00:47:39
  TRACK 47 AUDIO
    TITLE "2Q_t_1153-1169_47"
    INDEX 01 00:49:46
  TRACK 48 AUDIO
    TITLE "2Q_t_1153-1169_48"
    INDEX 01 00:50:16
  TRACK 49 AUDIO
    TITLE "2Q_t_1153-1169_49"
    INDEX 01 00:51:39
  TRACK 50 AUDIO
    TITLE "2Q_t_1153-1169_50"
    INDEX 01 00:52:11
  TRACK 51 AUDIO
    TITLE "2Q_t_1153-1169_51"
    INDEX 01 00:55:03
  TRACK 52 AUDIO
    TITLE "2Q_t_1153-1169_52"
    INDEX 01 00:55:49
  TRACK 53 AUDIO
    TITLE "2Q_t_1153-1169_53"
    INDEX 01 00:56:73
  TRACK 54 AUDIO
    TITLE "2Q_t_1153-1169_54"
    INDEX 01 00:57:47
  TRACK 55 AUDIO
    TITLE "2Q_t_1153-1169_55"
    INDEX 01 00:58:72
  TRACK 56 AUDIO
    TITLE "2Q_t_1153-1169_56"
    INDEX 01 00:59:44
  TRACK 57 AUDIO
    TITLE "2Q_t_1153-1169_57"
    INDEX 01 01:00:63
  TRACK 58 AUDIO
    TITLE "2Q_t_1153-1169_58"
    INDEX 01 01:01:37
  TRACK 59 AUDIO
    TITLE "2Q_t_1153-1169_59"
    INDEX 01 01:04:01
  TRACK 60 AUDIO
    TITLE "2Q_t_1153-1169_60"
    INDEX 01 01:04:44
  TRACK 61 AUDIO
    TITLE "2Q_t_1153-1169_61"
    INDEX 01 01:05:74
  TRACK 62 AUDIO
    TITLE "2Q_t_1153-1169_62"
    INDEX 01 01:06:54
  TRACK 63 AUDIO
    TITLE "2Q_t_1153-1169_63"
    INDEX 01 01:09:68
  TRACK 64 AUDIO
    TITLE "2Q_t_1153-1169_64"
    INDEX 01 01:10:40
  TRACK 65 AUDIO
    TITLE "2Q_t_1153-1169_65"
    INDEX 01 01:12:04
  TRACK 66 AUDIO
    TITLE "2Q_t_1153-1169_66"
    INDEX 01 01:12:57
  TRACK 67 AUDIO
    TITLE "2Q_t_1153-1169_67"
    INDEX 01 01:14:28
  TRACK 68 AUDIO
    TITLE "2Q_t_1153-1169_68"
    INDEX 01 01:15:00
  TRACK 69 AUDIO
    TITLE "2Q_t_1153-1169_69"
    INDEX 01 01:16:06
  TRACK 70 AUDIO
    TITLE "2Q_t_1153-1169_70"
    INDEX 01 01:16:60
  TRACK 71 AUDIO
    TITLE "2Q_t_1153-1169_71"
    INDEX 01 01:18:55
